# Blender v2.71 (sub 0) OBJ File: 'chip02.blend'
# www.blender.org
mtllib chip02.mtl
o Cube
v 7.000000 3.000000 -0.500000
v 7.000000 -3.000000 -0.500000
v -7.000001 -3.000000 -0.500000
v -6.999998 3.000001 -0.500000
v 7.000003 2.999998 0.500000
v 6.999995 -3.000002 0.500000
v -7.000002 -2.999999 0.500000
v -7.000000 3.000000 0.500000
v 5.595551 3.000000 -0.500000
v 5.595551 -3.000000 -0.500000
v 5.595553 2.999999 0.500000
v 5.595546 -3.000001 0.500000
v -5.613411 3.000001 -0.500000
v -5.613414 -3.000000 -0.500000
v -5.613412 3.000000 0.500000
v -5.613416 -2.999999 0.500000
v 7.000000 1.571823 -0.500000
v -6.999998 1.571824 -0.500000
v 7.000002 1.571821 0.500000
v -7.000000 1.571823 0.500000
v 5.595551 1.571823 -0.500000
v 5.595552 1.571821 0.500000
v -5.613411 1.571824 -0.500000
v -5.613413 1.571823 0.500000
v 7.000000 -1.506724 -0.500000
v 6.999998 -1.506725 0.500000
v 5.595548 -1.506725 0.500000
v -5.613415 -1.506723 0.500000
v -7.000000 -1.506723 -0.500000
v -7.000002 -1.506723 0.500000
v 5.595551 -1.506724 -0.500000
v -5.613413 -1.506723 -0.500000
v 7.000000 0.950712 -0.500000
v 7.000001 0.950711 -0.496688
v 5.595551 0.950711 0.500000
v -5.613414 0.950713 0.500000
v -6.999999 0.950713 -0.500000
v -7.000000 0.950713 -0.501564
v 5.595551 0.950712 -0.500000
v -5.613411 0.950713 -0.500000
v 7.000000 -0.919076 -0.500000
v 6.999998 -0.919078 -0.496688
v 5.595549 -0.919077 0.500000
v -5.613415 -0.919075 0.500000
v -7.000000 -0.919075 -0.500000
v -7.000002 -0.919075 -0.501564
v 5.595551 -0.919076 -0.500000
v -5.613412 -0.919075 -0.500000
vn 0.000000 0.000000 -1.000000
vn 0.000000 0.000000 1.000000
vn 1.000000 -0.000000 0.000000
vn 0.000000 -1.000000 0.000000
vn -1.000000 0.000000 -0.000000
vn 0.000000 1.000000 0.000000
vn 0.000000 0.862500 0.506100
vn 1.000000 0.001000 0.000600
vn 0.578700 0.000000 0.815500
vn 1.000000 -0.000000 -0.000900
vn -0.000000 -0.849800 0.527000
vn 1.000000 0.000600 -0.000300
vn -0.585500 0.000000 0.810600
vn 1.000000 -0.000000 -0.000300
vn 1.000000 -0.002600 -0.001500
vn 0.000000 0.861400 0.507900
vn 1.000000 -0.000000 -0.001500
vn -0.000000 -0.848700 0.528900
vn 1.000000 0.000000 0.000600
usemtl Material
s off
f 32//1 14//1 3//1
f 28//2 30//2 7//2
f 25//3 26//3 6//3
f 14//4 16//4 7//4
f 20//5 8//5 4//5
f 13//6 4//6 8//6
f 2//1 10//1 31//1
f 26//2 27//2 12//2
f 2//4 6//4 12//4
f 5//6 1//6 9//6
f 10//1 14//1 32//1
f 27//2 28//2 16//2
f 10//4 12//4 16//4
f 9//6 13//6 15//6
f 23//1 18//1 4//1
f 15//2 8//2 20//2
f 1//3 5//3 19//3
f 38//5 20//5 18//5
f 17//1 21//1 9//1
f 5//2 11//2 22//2
f 21//1 23//1 13//1
f 11//2 15//2 24//2
f 48//1 32//1 29//1
f 46//7 30//7 28//7
f 41//8 42//8 26//8
f 25//1 31//1 47//1
f 42//9 43//9 27//9
f 31//1 32//1 48//1
f 43//2 44//2 28//2
f 3//5 7//5 30//5
f 46//10 38//10 37//10
f 23//1 40//1 37//1
f 24//11 20//11 38//11
f 19//12 34//12 33//12
f 17//1 33//1 39//1
f 22//9 35//9 34//9
f 21//1 39//1 40//1
f 24//2 36//2 35//2
f 40//1 48//1 45//1
f 36//13 38//13 46//13
f 33//14 34//14 42//14
f 41//1 47//1 39//1
f 34//9 35//9 43//9
f 47//1 48//1 40//1
f 35//2 36//2 44//2
f 30//15 46//15 45//15
f 29//1 32//1 3//1
f 16//2 28//2 7//2
f 2//3 25//3 6//3
f 3//4 14//4 7//4
f 18//5 20//5 4//5
f 15//6 13//6 8//6
f 25//1 2//1 31//1
f 6//2 26//2 12//2
f 10//4 2//4 12//4
f 11//6 5//6 9//6
f 31//1 10//1 32//1
f 12//2 27//2 16//2
f 14//4 10//4 16//4
f 11//6 9//6 15//6
f 13//1 23//1 4//1
f 24//2 15//2 20//2
f 17//3 1//3 19//3
f 37//10 38//10 18//10
f 1//1 17//1 9//1
f 19//2 5//2 22//2
f 9//1 21//1 13//1
f 22//2 11//2 24//2
f 45//1 48//1 29//1
f 44//13 46//13 28//13
f 25//3 41//3 26//3
f 41//1 25//1 47//1
f 26//16 42//16 27//16
f 47//1 31//1 48//1
f 27//2 43//2 28//2
f 29//5 3//5 30//5
f 45//17 46//17 37//17
f 18//1 23//1 37//1
f 36//13 24//13 38//13
f 17//3 19//3 33//3
f 21//1 17//1 39//1
f 19//18 22//18 34//18
f 23//1 21//1 40//1
f 22//2 24//2 35//2
f 37//1 40//1 45//1
f 44//13 36//13 46//13
f 41//19 33//19 42//19
f 33//1 41//1 39//1
f 42//9 34//9 43//9
f 39//1 47//1 40//1
f 43//2 35//2 44//2
f 29//5 30//5 45//5
