# Blender v2.71 (sub 0) OBJ File: 'wire.blend'
# www.blender.org
mtllib wire.mtl
o Cylinder
v -8.000000 0.500000 0.000005
v 8.000000 0.500000 -0.000005
v -8.000000 0.490393 -0.097540
v 8.000000 0.490393 -0.097550
v -8.000000 0.461940 -0.191337
v 8.000000 0.461940 -0.191347
v -8.000000 0.415735 -0.277780
v 8.000000 0.415735 -0.277790
v -8.000000 0.353553 -0.353548
v 8.000000 0.353553 -0.353559
v -8.000000 0.277785 -0.415730
v 8.000000 0.277785 -0.415740
v -8.000000 0.191342 -0.461935
v 8.000000 0.191342 -0.461945
v -8.000000 0.097545 -0.490387
v 8.000000 0.097545 -0.490398
v -8.000000 0.000000 -0.499995
v 8.000000 0.000000 -0.500005
v -8.000000 -0.097545 -0.490388
v 8.000000 -0.097545 -0.490398
v -8.000000 -0.191342 -0.461935
v 8.000000 -0.191342 -0.461945
v -8.000000 -0.277785 -0.415730
v 8.000000 -0.277785 -0.415740
v -8.000000 -0.353553 -0.353548
v 8.000000 -0.353553 -0.353559
v -8.000000 -0.415735 -0.277780
v 8.000000 -0.415735 -0.277790
v -8.000000 -0.461940 -0.191337
v 8.000000 -0.461940 -0.191347
v -8.000000 -0.490393 -0.097540
v 8.000000 -0.490393 -0.097550
v -8.000000 -0.500000 0.000005
v 8.000000 -0.500000 -0.000005
v -8.000000 -0.490393 0.097550
v 8.000000 -0.490393 0.097540
v -8.000000 -0.461940 0.191347
v 8.000000 -0.461940 0.191337
v -8.000000 -0.415735 0.277790
v 8.000000 -0.415735 0.277780
v -8.000000 -0.353553 0.353559
v 8.000000 -0.353553 0.353548
v -8.000000 -0.277785 0.415740
v 8.000000 -0.277785 0.415730
v -8.000000 -0.191341 0.461945
v 8.000000 -0.191341 0.461935
v -8.000000 -0.097545 0.490398
v 8.000000 -0.097545 0.490388
v -8.000000 0.000000 0.500005
v 8.000000 0.000000 0.499995
v -8.000000 0.097546 0.490398
v 8.000000 0.097546 0.490387
v -8.000000 0.191342 0.461945
v 8.000000 0.191342 0.461934
v -8.000000 0.277786 0.415740
v 8.000000 0.277786 0.415729
v -8.000000 0.353554 0.353558
v 8.000000 0.353554 0.353548
v -8.000000 0.415735 0.277790
v 8.000000 0.415735 0.277779
v -8.000000 0.461940 0.191346
v 8.000000 0.461940 0.191336
v -8.000000 0.490393 0.097550
v 8.000000 0.490393 0.097539
vn -0.000000 0.995200 -0.098000
vn -0.000000 0.956900 -0.290300
vn -0.000000 0.881900 -0.471400
vn -0.000000 0.773000 -0.634400
vn -0.000000 0.634400 -0.773000
vn -0.000000 0.471400 -0.881900
vn -0.000000 0.290300 -0.956900
vn -0.000000 0.098000 -0.995200
vn -0.000000 -0.098000 -0.995200
vn -0.000000 -0.290300 -0.956900
vn -0.000000 -0.471400 -0.881900
vn -0.000000 -0.634400 -0.773000
vn -0.000000 -0.773000 -0.634400
vn -0.000000 -0.881900 -0.471400
vn -0.000000 -0.956900 -0.290300
vn -0.000000 -0.995200 -0.098000
vn 0.000000 -0.995200 0.098000
vn 0.000000 -0.956900 0.290300
vn 0.000000 -0.881900 0.471400
vn 0.000000 -0.773000 0.634400
vn 0.000000 -0.634400 0.773000
vn 0.000000 -0.471400 0.881900
vn 0.000000 -0.290300 0.956900
vn 0.000000 -0.098000 0.995200
vn 0.000000 0.098000 0.995200
vn 0.000000 0.290300 0.956900
vn 0.000000 0.471400 0.881900
vn 0.000000 0.634400 0.773000
vn 0.000000 0.773000 0.634400
vn 0.000000 0.881900 0.471400
vn 1.000000 0.000000 -0.000000
vn 0.000000 0.995200 0.098000
vn 0.000000 0.956900 0.290300
vn -1.000000 0.000000 0.000000
vn -1.000000 0.000100 0.000000
vn -1.000000 -0.000100 0.000000
usemtl None
s off
f 2//1 4//1 3//1
f 4//2 6//2 5//2
f 6//3 8//3 7//3
f 8//4 10//4 9//4
f 10//5 12//5 11//5
f 12//6 14//6 13//6
f 14//7 16//7 15//7
f 16//8 18//8 17//8
f 18//9 20//9 19//9
f 20//10 22//10 21//10
f 22//11 24//11 23//11
f 24//12 26//12 25//12
f 26//13 28//13 27//13
f 28//14 30//14 29//14
f 30//15 32//15 31//15
f 32//16 34//16 33//16
f 34//17 36//17 35//17
f 36//18 38//18 37//18
f 38//19 40//19 39//19
f 40//20 42//20 41//20
f 42//21 44//21 43//21
f 44//22 46//22 45//22
f 46//23 48//23 47//23
f 48//24 50//24 49//24
f 50//25 52//25 51//25
f 52//26 54//26 53//26
f 54//27 56//27 55//27
f 56//28 58//28 57//28
f 58//29 60//29 59//29
f 60//30 62//30 61//30
f 38//31 22//31 6//31
f 64//32 2//32 1//32
f 62//33 64//33 63//33
f 31//34 47//34 15//34
f 1//1 2//1 3//1
f 3//2 4//2 5//2
f 5//3 6//3 7//3
f 7//4 8//4 9//4
f 9//5 10//5 11//5
f 11//6 12//6 13//6
f 13//7 14//7 15//7
f 15//8 16//8 17//8
f 17//9 18//9 19//9
f 19//10 20//10 21//10
f 21//11 22//11 23//11
f 23//12 24//12 25//12
f 25//13 26//13 27//13
f 27//14 28//14 29//14
f 29//15 30//15 31//15
f 31//16 32//16 33//16
f 33//17 34//17 35//17
f 35//18 36//18 37//18
f 37//19 38//19 39//19
f 39//20 40//20 41//20
f 41//21 42//21 43//21
f 43//22 44//22 45//22
f 45//23 46//23 47//23
f 47//24 48//24 49//24
f 49//25 50//25 51//25
f 51//26 52//26 53//26
f 53//27 54//27 55//27
f 55//28 56//28 57//28
f 57//29 58//29 59//29
f 59//30 60//30 61//30
f 2//31 64//31 4//31
f 64//31 6//31 4//31
f 58//31 54//31 60//31
f 58//31 56//31 54//31
f 54//31 52//31 50//31
f 46//31 44//31 48//31
f 61//33 62//33 63//33
f 40//31 38//31 6//31
f 34//31 32//31 36//31
f 30//31 22//31 32//31
f 30//31 28//31 26//31
f 26//31 24//31 22//31
f 22//31 20//31 18//31
f 14//31 22//31 16//31
f 14//31 12//31 10//31
f 10//31 8//31 6//31
f 62//31 60//31 64//31
f 60//31 54//31 64//31
f 44//31 54//31 48//31
f 44//31 40//31 54//31
f 38//31 36//31 22//31
f 30//31 26//31 22//31
f 54//31 50//31 48//31
f 14//31 10//31 6//31
f 6//31 64//31 54//31
f 44//31 42//31 40//31
f 22//31 18//31 16//31
f 22//31 14//31 6//31
f 54//31 40//31 6//31
f 63//32 64//32 1//32
f 36//31 32//31 22//31
f 63//35 1//35 3//35
f 3//36 5//36 7//36
f 11//34 13//34 9//34
f 15//34 7//34 13//34
f 15//34 17//34 19//34
f 21//34 23//34 25//34
f 27//34 21//34 25//34
f 27//35 29//35 31//35
f 35//36 37//36 33//36
f 39//34 47//34 37//34
f 39//34 41//34 43//34
f 43//34 45//34 47//34
f 47//34 49//34 51//34
f 53//34 55//34 57//34
f 59//34 63//34 57//34
f 59//34 61//34 63//34
f 63//34 3//34 7//34
f 13//34 7//34 9//34
f 47//34 51//34 53//34
f 31//34 15//34 27//34
f 37//34 47//34 33//34
f 39//34 43//34 47//34
f 15//34 19//34 21//34
f 63//34 7//34 15//34
f 63//34 53//34 57//34
f 47//34 31//34 33//34
f 47//34 53//34 63//34
f 15//34 21//34 27//34
f 47//34 63//34 15//34
